<svg xmlns="http://www.w3.org/2000/svg" viewBox="30 30 110 118">
  <path fill="#fff" d="M116.05,44.61V35l17.27,18.65h-8.91C119.81,53.64,116.05,49.57,116.05,44.61Z"/>
  <path fill="#fff" d="M133,113a12.09,12.09,0,0,0,.33-2.78V58.89h-9.54a12.35,12.35,0,0,1-12.31-12.31V37.82a5,5,0,0,0-1.21-2.89,4.86,4.86,0,0,0-2.38-1.48H56.55A12.35,12.35,0,0,0,44.24,45.77v64.45a12.09,12.09,0,0,0,.33,2.78,10.37,10.37,0,0,0-9.9,10.33v.91A10.38,10.38,0,0,0,45,134.59H56.81a10.37,10.37,0,0,0,9.41-6.09v1.18A10.39,10.39,0,0,0,76.58,140h2.9a10.39,10.39,0,0,0,9.3-5.84,10.38,10.38,0,0,0,9.3,5.84H101a10.38,10.38,0,0,0,10.35-10.35v-1.16a10.38,10.38,0,0,0,9.41,6.07h11.79a10.38,10.38,0,0,0,10.35-10.35v-.91A10.37,10.37,0,0,0,133,113ZM99.53,76.33a2.5,2.5,0,1,1,5,0V88.81a2.5,2.5,0,0,1-5,0ZM81,96.11H96.62a8.26,8.26,0,0,1-2.24,6.32,8.1,8.1,0,0,1-5.55,2.36A7.59,7.59,0,0,1,81,96.11ZM73,76.33a2.51,2.51,0,0,1,2.5-2.51A2.53,2.53,0,0,1,78,76.33V88.81a2.51,2.51,0,0,1-5,0Z"/>
</svg>
